<svg xmlns="http://www.w3.org/2000/svg" width="60" height="60" viewBox="0 0 60 60">
  <defs>
    <pattern id="tile" x="0" y="0" width="60" height="60" patternUnits="userSpaceOnUse">
      <rect width="60" height="60" fill="none"></rect>
      <rect x="0" y="0" width="60" height="60" fill="none" stroke="#C4522A" stroke-width="0.8" opacity="0.25"></rect>
      <rect x="6" y="6" width="48" height="48" fill="none" stroke="#C4522A" stroke-width="0.5" opacity="0.2"></rect>
      <line x1="30" y1="0" x2="30" y2="60" stroke="#C4522A" stroke-width="0.5" opacity="0.15"></line>
      <line x1="0" y1="30" x2="60" y2="30" stroke="#C4522A" stroke-width="0.5" opacity="0.15"></line>
      <line x1="0" y1="0" x2="30" y2="30" stroke="#D4901A" stroke-width="0.4" opacity="0.12"></line>
      <line x1="60" y1="0" x2="30" y2="30" stroke="#D4901A" stroke-width="0.4" opacity="0.12"></line>
      <line x1="0" y1="60" x2="30" y2="30" stroke="#D4901A" stroke-width="0.4" opacity="0.12"></line>
      <line x1="60" y1="60" x2="30" y2="30" stroke="#D4901A" stroke-width="0.4" opacity="0.12"></line>
      <circle cx="30" cy="30" r="4" fill="#C4522A" opacity="0.18"></circle>
      <circle cx="0" cy="0" r="2.5" fill="#C4522A" opacity="0.18"></circle>
      <circle cx="60" cy="0" r="2.5" fill="#C4522A" opacity="0.18"></circle>
      <circle cx="0" cy="60" r="2.5" fill="#C4522A" opacity="0.18"></circle>
      <circle cx="60" cy="60" r="2.5" fill="#C4522A" opacity="0.18"></circle>
      <circle cx="30" cy="0" r="2" fill="#D4901A" opacity="0.2"></circle>
      <circle cx="30" cy="60" r="2" fill="#D4901A" opacity="0.2"></circle>
      <circle cx="0" cy="30" r="2" fill="#D4901A" opacity="0.2"></circle>
      <circle cx="60" cy="30" r="2" fill="#D4901A" opacity="0.2"></circle>
    </pattern>
  </defs>
  <rect width="60" height="60" fill="url(#tile)"></rect>
</svg>